<?xml version="1.0" standalone="no"?>
<!DOCTYPE svg PUBLIC "-//W3C//DTD SVG 20010904//EN"
 "http://www.w3.org/TR/2001/REC-SVG-20010904/DTD/svg10.dtd">
<svg version="1.0" xmlns="http://www.w3.org/2000/svg"
 width="385.000000pt" height="216.000000pt" viewBox="0 0 385.000000 216.000000"
 preserveAspectRatio="xMidYMid meet">
<metadata>
Created by potrace 1.16, written by Peter Selinger 2001-2019
</metadata>
<g transform="translate(0.000000,216.000000) scale(0.100000,-0.100000)"
fill="#000000" stroke="none">
<path d="M1820 2070 c0 -6 5 -10 10 -10 15 0 12 -16 -2 -18 -20 -2 -70 -10
-106 -17 -19 -3 -32 -2 -29 2 3 5 -3 9 -13 9 -13 0 -16 -4 -9 -12 7 -8 2 -10
-18 -6 -16 2 -34 12 -42 21 -13 15 -13 15 -8 -1 9 -26 -28 -51 -73 -50 -22 1
-40 -2 -40 -7 0 -5 10 -7 23 -4 12 3 19 2 15 -2 -4 -4 -20 -9 -34 -11 -15 -1
-31 -9 -36 -18 -4 -8 -24 -20 -43 -26 -19 -6 -33 -15 -30 -19 2 -5 -23 -33
-57 -62 -34 -30 -70 -61 -80 -70 -10 -9 -18 -21 -18 -28 0 -6 -8 -12 -17 -13
-10 0 -24 -2 -30 -2 -7 -1 -20 -12 -29 -26 l-16 -25 20 22 c17 19 21 20 26 7
7 -19 -2 -37 -15 -29 -5 4 -9 -3 -9 -15 0 -12 -4 -19 -9 -16 -5 3 -11 -9 -15
-27 -4 -17 -10 -27 -14 -22 -10 15 -39 14 -39 0 0 -8 7 -11 15 -7 12 4 14 1 9
-12 -4 -10 -7 -20 -7 -22 0 -3 -4 -2 -10 1 -5 3 -10 -3 -10 -14 0 -12 -7 -21
-15 -21 -9 0 -15 -10 -15 -26 0 -20 -4 -25 -16 -20 -14 5 -15 4 -4 -9 9 -11
10 -18 1 -28 -6 -8 -7 -17 -3 -22 4 -4 -5 -6 -19 -3 -21 4 -25 1 -22 -13 3 -9
0 -20 -6 -23 -7 -5 -7 -13 2 -27 8 -13 9 -22 2 -27 -5 -4 -11 -22 -12 -41 -1
-18 -8 -39 -14 -47 -13 -16 -49 -19 -49 -3 0 5 6 7 12 3 10 -6 10 -5 1 8 -7 8
-9 19 -5 23 4 5 1 5 -5 1 -7 -4 -13 -17 -13 -29 0 -14 -3 -18 -8 -10 -8 12
-36 12 -48 0 -11 -11 -44 -8 -44 4 0 5 6 7 12 3 10 -6 10 -5 1 8 -7 8 -9 19
-5 23 4 5 1 5 -5 1 -7 -4 -13 -17 -13 -29 0 -14 -3 -18 -8 -10 -8 12 -29 13
-49 0 -6 -4 -18 -5 -25 -2 -9 4 -15 0 -15 -8 0 -9 7 -12 20 -9 15 4 18 2 12
-9 -6 -11 -5 -12 6 -1 7 6 35 12 62 12 36 0 46 -3 41 -12 -6 -10 -4 -10 7 0
18 17 113 17 103 0 -5 -9 -2 -9 9 1 15 12 17 11 17 -7 0 -12 -4 -23 -8 -26 -4
-2 -7 -34 -5 -70 1 -36 -2 -68 -7 -71 -6 -3 -10 -11 -10 -16 0 -6 4 -8 9 -5 5
3 11 -5 13 -19 3 -14 1 -25 -3 -25 -5 0 -9 -5 -9 -12 0 -6 3 -9 6 -5 6 6 34
-16 34 -26 0 -3 -7 -7 -14 -10 -10 -4 -13 -1 -9 9 4 11 -1 14 -20 12 -15 -2
-30 -8 -34 -12 -4 -5 2 -7 14 -4 13 4 24 0 27 -8 3 -8 12 -14 19 -14 8 0 14
-6 14 -12 0 -7 3 -24 7 -38 5 -17 4 -21 -2 -11 -5 7 -15 12 -21 10 -8 -3 -5
-12 9 -26 24 -26 26 -43 5 -43 -13 0 -20 17 -17 41 1 4 -8 9 -19 12 -20 5 -20
5 -3 -14 9 -10 12 -19 6 -19 -6 0 -14 5 -17 10 -3 6 -11 10 -17 10 -6 0 1 -9
16 -21 23 -18 25 -23 14 -37 -11 -13 -11 -14 2 -6 23 14 61 12 56 -3 -3 -8 1
-10 12 -6 15 6 16 5 2 -12 -10 -13 -11 -16 -2 -11 9 5 19 0 30 -15 20 -28 22
-42 12 -58 -5 -9 -9 -8 -13 4 -4 9 -3 14 1 11 5 -3 9 1 9 9 0 12 -3 12 -16 2
-12 -10 -14 -9 -8 6 4 11 2 17 -7 17 -7 0 -13 -7 -13 -15 0 -8 4 -15 9 -15 5
0 6 -5 2 -12 -4 -7 -3 -8 4 -4 7 4 12 1 12 -9 0 -9 -5 -13 -10 -10 -6 4 -15
-7 -21 -24 -6 -17 -15 -31 -21 -31 -5 0 -6 5 -2 12 4 6 3 8 -4 5 -5 -4 -8 -16
-5 -27 3 -12 0 -20 -8 -20 -7 0 -9 3 -6 6 8 9 -11 44 -23 44 -6 0 -10 -5 -10
-11 0 -5 5 -7 10 -4 6 3 10 -1 10 -9 0 -19 -17 -30 -25 -16 -3 5 -12 10 -18
10 -7 -1 -6 -5 4 -13 9 -7 18 -19 22 -27 4 -12 6 -11 6 3 1 10 6 15 11 12 20
-13 49 7 60 40 8 24 20 37 36 41 13 3 24 11 24 17 0 6 7 1 16 -11 13 -18 13
-26 3 -38 -9 -12 -9 -14 2 -11 8 2 11 2 7 0 -5 -3 -8 -11 -8 -19 0 -8 -5 -14
-12 -14 -6 0 -8 3 -5 6 8 9 -11 44 -23 44 -6 0 -10 -5 -10 -11 0 -5 5 -7 10
-4 6 3 10 -1 10 -9 0 -19 -17 -30 -25 -16 -3 5 -12 10 -18 10 -7 -1 -6 -5 4
-13 9 -7 18 -19 22 -27 4 -12 6 -12 6 2 1 11 7 15 20 11 10 -2 25 3 34 11 14
14 18 12 46 -26 23 -32 28 -44 18 -51 -8 -6 -7 -7 5 -4 9 3 24 -3 34 -14 16
-17 16 -22 4 -29 -13 -8 -12 -10 1 -10 23 0 79 -51 79 -71 0 -19 -26 -33 -35
-19 -4 6 -12 10 -18 10 -7 0 -4 -7 6 -14 16 -12 16 -15 2 -29 -14 -14 -13 -16
3 -14 11 0 19 8 18 17 -1 9 6 14 18 12 10 -2 16 1 13 5 -3 5 -2 15 3 23 8 12
14 10 37 -13 24 -24 26 -29 13 -38 -13 -9 -13 -10 0 -6 15 4 90 -28 90 -39 0
-3 -7 -3 -16 0 -9 3 -12 2 -9 -5 4 -6 13 -8 20 -5 14 5 75 -20 85 -35 3 -4 15
-9 28 -10 12 -2 22 -8 22 -13 -2 -14 23 -26 41 -21 9 3 29 0 45 -6 27 -10 28
-12 9 -20 l-20 -9 20 3 c11 2 19 8 18 15 -3 13 77 14 98 1 11 -7 9 -9 -5 -9
-11 0 -16 -3 -13 -7 4 -3 18 0 32 7 19 10 34 11 58 4 33 -11 168 -11 234 0 27
4 32 3 18 -4 -14 -6 -16 -9 -5 -9 9 -1 20 3 25 8 12 12 68 23 109 23 16 -1 38
4 48 9 10 6 18 6 18 1 0 -6 10 -13 23 -16 21 -7 21 -7 2 -16 -16 -7 -17 -9 -3
-9 24 -1 31 14 13 29 -8 7 -12 17 -8 23 3 6 1 7 -5 3 -7 -4 -12 -3 -12 3 0 13
37 24 51 15 9 -5 7 -11 -5 -19 -14 -11 -15 -13 -1 -19 18 -6 45 2 45 15 0 4
-7 6 -15 3 -10 -4 -13 0 -10 15 3 14 0 19 -8 15 -7 -3 -1 3 13 14 13 11 28 18
32 16 4 -3 20 3 34 13 20 13 29 14 32 5 5 -17 22 -15 22 4 0 8 4 13 9 10 5 -4
12 0 14 6 4 10 8 9 17 -2 10 -12 11 -11 7 9 l-6 23 26 -23 c15 -13 23 -19 20
-13 -4 7 2 14 13 17 11 3 20 11 20 19 0 8 -3 9 -8 2 -4 -6 -16 -14 -27 -18
-16 -6 -15 -3 5 16 16 15 34 22 48 20 12 -3 22 1 22 7 0 5 -7 8 -15 5 -8 -4
-15 -1 -15 4 0 6 -8 12 -17 15 -14 3 -12 6 10 15 15 6 27 19 27 28 0 16 50 82
51 67 0 -4 8 12 18 37 19 45 41 65 41 35 0 -9 8 -24 17 -33 16 -16 16 -16 10
2 -6 16 -3 18 24 14 27 -4 29 -3 16 7 -25 18 -21 24 13 23 23 -1 30 -6 30 -20
0 -11 4 -17 10 -13 5 3 7 12 4 19 -3 7 2 16 10 19 9 4 16 17 17 29 0 22 1 22
9 3 9 -20 10 -17 10 23 0 4 -6 7 -12 7 -7 1 -12 7 -10 14 1 7 -2 10 -9 5 -9
-5 -10 -2 -6 9 4 11 1 17 -8 17 -9 0 -12 -6 -9 -15 5 -11 2 -13 -10 -9 -9 3
-16 2 -16 -4 0 -5 10 -9 22 -8 17 1 22 -5 24 -29 2 -16 1 -25 -2 -19 -6 14
-44 6 -44 -9 0 -6 -3 -7 -6 -4 -4 4 -1 13 6 22 11 13 10 14 -4 9 -9 -3 -16
-12 -16 -19 0 -7 -7 -15 -15 -19 -8 -3 -15 -2 -15 3 0 4 -10 12 -22 18 l-22 9
25 25 c13 13 25 35 25 49 3 41 15 70 31 70 8 0 12 4 8 9 -3 6 3 14 12 20 13 8
15 13 6 19 -8 5 -9 13 -3 22 6 8 10 11 10 6 0 -5 8 -2 17 5 11 10 14 10 9 2
-4 -7 -3 -13 3 -13 5 0 12 6 14 13 3 7 6 5 6 -5 1 -10 5 -18 11 -18 5 0 7 -8
3 -18 -3 -9 -3 -14 1 -11 4 4 9 19 12 35 3 22 2 25 -6 14 -5 -8 -10 -10 -10
-4 0 18 12 24 26 14 19 -17 57 -21 66 -7 5 8 8 7 8 -5 0 -10 4 -18 10 -18 5 0
7 -8 3 -17 -3 -10 -3 -15 1 -12 4 4 9 19 12 35 3 22 2 25 -6 14 -5 -8 -10 -10
-10 -4 0 18 12 24 26 14 19 -17 57 -21 66 -7 5 8 8 7 8 -5 0 -10 4 -18 10 -18
5 0 7 -8 3 -18 -3 -9 -3 -14 1 -11 4 4 9 19 12 35 3 22 2 25 -6 14 -5 -8 -10
-10 -10 -4 0 18 12 24 26 14 19 -17 57 -21 66 -7 5 8 8 7 8 -5 0 -10 4 -18 10
-18 5 0 7 -8 3 -18 -3 -9 -3 -14 1 -11 4 4 9 19 12 35 3 22 2 25 -6 14 -5 -8
-10 -10 -10 -4 0 18 12 24 26 14 19 -17 57 -21 66 -7 5 8 8 7 8 -5 0 -10 4
-18 10 -18 5 0 7 -8 3 -17 -3 -10 -3 -15 1 -12 4 4 9 19 12 35 3 22 2 25 -6
14 -5 -8 -10 -10 -10 -4 0 18 12 24 26 14 19 -17 57 -21 66 -7 5 8 8 7 8 -5 0
-10 4 -18 10 -18 5 0 7 -8 3 -17 -3 -10 -3 -15 1 -12 4 4 9 19 12 35 3 22 2
25 -6 14 -5 -8 -10 -10 -10 -4 0 18 12 24 26 14 19 -17 57 -21 66 -7 5 8 8 7
8 -5 0 -10 4 -18 10 -18 5 0 7 -8 3 -17 -3 -10 -3 -15 1 -12 4 4 9 19 12 35 3
22 2 25 -6 14 -5 -8 -10 -10 -10 -4 0 18 12 24 26 14 19 -17 57 -21 66 -7 5 8
8 7 8 -5 0 -10 4 -18 10 -18 5 0 7 -8 3 -17 -3 -10 -3 -15 1 -12 4 4 9 19 12
35 3 22 2 25 -6 14 -5 -8 -10 -10 -10 -4 0 18 12 24 26 14 19 -17 57 -21 66
-7 5 8 8 7 8 -5 0 -10 4 -18 10 -18 5 0 7 -8 3 -17 -3 -10 -3 -15 1 -12 4 4 9
19 12 35 3 22 2 25 -6 14 -5 -8 -10 -10 -10 -4 0 18 13 24 27 13 10 -9 13 -7
13 10 0 12 -4 19 -10 16 -9 -6 -14 7 -11 31 1 6 -12 11 -29 11 -16 0 -27 -4
-24 -9 3 -4 12 -8 20 -8 8 0 14 -7 14 -15 0 -9 -6 -12 -17 -8 -11 4 -14 3 -9
-5 4 -7 1 -12 -9 -12 -11 0 -15 5 -11 16 3 9 2 12 -5 9 -5 -4 -7 -16 -4 -28 6
-21 5 -21 -8 1 -7 12 -16 19 -20 16 -7 -7 -11 9 -8 32 1 6 -12 11 -29 11 -16
0 -27 -4 -24 -9 3 -4 12 -8 20 -8 8 0 14 -7 14 -15 0 -9 -6 -12 -17 -8 -11 4
-14 3 -9 -5 4 -7 1 -12 -9 -12 -11 0 -15 5 -11 16 3 9 2 12 -5 9 -5 -4 -7 -16
-4 -28 6 -21 5 -21 -8 1 -7 12 -16 19 -20 16 -7 -7 -11 9 -8 32 1 6 -12 11
-29 11 -16 0 -27 -4 -24 -9 3 -4 12 -8 20 -8 8 0 14 -7 14 -15 0 -9 -6 -12
-17 -8 -11 4 -14 3 -9 -5 4 -7 1 -12 -9 -12 -11 0 -15 5 -11 16 3 9 2 12 -5 9
-5 -4 -7 -16 -4 -28 6 -21 5 -21 -8 1 -7 12 -16 19 -20 16 -7 -7 -11 9 -8 32
1 6 -12 11 -29 11 -16 0 -27 -4 -24 -9 3 -4 12 -8 20 -8 8 0 14 -7 14 -15 0
-9 -6 -12 -17 -8 -11 4 -14 3 -9 -5 4 -7 1 -12 -9 -12 -11 0 -15 5 -11 16 3 9
2 12 -5 9 -5 -4 -7 -16 -4 -28 6 -21 5 -21 -8 1 -7 12 -16 19 -20 16 -7 -7
-11 9 -8 32 1 6 -12 11 -29 11 -16 0 -27 -4 -24 -9 3 -4 12 -8 20 -8 8 0 14
-7 14 -15 0 -9 -6 -12 -17 -8 -11 4 -14 3 -9 -5 4 -7 1 -12 -9 -12 -11 0 -15
5 -11 16 3 9 2 12 -5 9 -5 -4 -7 -16 -4 -28 6 -21 5 -21 -8 1 -7 12 -16 19
-20 16 -7 -7 -11 9 -8 32 1 6 -12 11 -29 11 -16 0 -27 -4 -24 -9 3 -4 12 -8
20 -8 8 0 14 -7 14 -15 0 -9 -6 -12 -17 -8 -11 4 -14 3 -9 -5 4 -7 1 -12 -9
-12 -11 0 -15 5 -11 16 3 9 2 12 -5 9 -5 -4 -7 -16 -4 -28 6 -21 5 -21 -8 1
-7 12 -16 19 -20 16 -7 -7 -11 9 -8 32 1 6 -12 11 -29 11 -16 0 -27 -4 -24 -9
3 -4 12 -8 20 -8 8 0 14 -7 14 -15 0 -9 -6 -12 -17 -8 -11 4 -14 3 -9 -5 4 -7
1 -12 -9 -12 -11 0 -15 5 -11 16 3 9 2 12 -5 9 -5 -4 -7 -16 -4 -28 6 -21 5
-21 -8 1 -7 12 -16 19 -20 16 -7 -7 -11 9 -8 32 1 6 -12 11 -29 11 -16 0 -27
-4 -24 -9 3 -4 12 -8 20 -8 8 0 14 -7 14 -15 0 -9 -6 -12 -17 -8 -11 4 -14 3
-9 -5 4 -7 1 -12 -9 -12 -11 0 -15 5 -11 16 3 9 2 12 -5 9 -5 -4 -7 -16 -4
-28 6 -21 5 -21 -8 1 -7 12 -16 19 -20 16 -7 -7 -11 9 -8 33 1 7 -11 10 -34 9
-23 -2 -34 1 -32 8 3 6 10 10 16 8 7 -1 10 2 6 8 -3 6 -11 8 -16 5 -5 -4 -9 3
-9 14 0 24 19 38 30 21 5 -9 9 -8 13 3 4 11 -1 14 -19 12 -24 -2 -32 9 -14 20
6 4 7 12 3 18 -4 7 1 6 10 -2 15 -12 17 -12 11 3 -3 9 -10 16 -14 16 -12 0 -7
70 5 71 5 1 16 1 24 0 7 -2 10 2 6 8 -3 6 -1 11 6 11 8 0 9 3 0 13 -6 8 -8 17
-4 20 3 4 1 7 -6 7 -8 0 -10 -7 -6 -21 5 -15 4 -19 -4 -15 -6 4 -11 1 -11 -6
0 -8 -5 -6 -11 5 -8 13 -7 22 1 33 7 7 8 14 3 14 -13 0 -15 58 -2 65 13 9 11
25 -3 22 -7 -1 -13 5 -13 14 0 9 -5 23 -11 30 -6 8 -14 26 -18 42 -7 28 -2 31
39 28 19 -2 19 -1 3 12 -10 8 -14 17 -11 21 4 4 -4 3 -18 -3 -23 -8 -28 -6
-40 17 -7 15 -13 30 -13 33 -1 3 -9 14 -19 24 -15 14 -16 20 -5 26 10 7 10 9
1 9 -7 0 -13 12 -13 28 0 18 -3 23 -9 14 -6 -11 -11 -10 -25 3 -21 21 -20 41
2 55 14 9 13 10 -8 4 -14 -3 -22 -3 -18 1 4 4 -9 23 -28 41 -24 21 -34 37 -28
46 4 7 4 10 -1 6 -11 -10 -47 11 -39 23 3 6 12 8 20 5 7 -3 18 4 24 15 6 11
15 17 19 15 4 -3 8 0 8 7 0 8 -16 12 -46 11 -37 -1 -46 -5 -45 -18 2 -16 1
-16 -17 0 -10 9 -21 25 -24 35 -4 11 -11 17 -16 13 -11 -6 -39 13 -39 27 0 5
6 6 14 3 15 -6 48 34 40 48 -10 16 -21 8 -20 -14 1 -31 -26 -29 -35 2 l-6 25
-4 -28 -4 -28 -35 37 c-19 20 -30 34 -24 31 6 -3 11 0 11 8 0 18 -3 18 -28 5
-14 -8 -19 -7 -19 1 0 6 -7 9 -15 5 -8 -3 -15 0 -15 6 0 6 -3 8 -7 5 -3 -4
-12 -2 -20 4 -7 6 -13 9 -13 5 0 -4 -18 3 -40 14 -22 11 -40 26 -40 33 0 8 -4
7 -10 -3 -9 -13 -11 -13 -20 0 -5 8 -10 12 -10 8 0 -4 -12 -3 -27 3 -16 6 -41
13 -58 16 -16 3 -32 9 -35 13 -3 5 -21 7 -39 4 -19 -3 -31 -2 -27 4 3 5 -8 8
-27 6 -17 -3 -39 -1 -47 2 -8 4 -34 6 -57 5 -32 -2 -43 1 -43 12 0 8 -7 17
-15 21 -8 3 -15 1 -15 -4z m187 -111 c15 -6 48 -11 72 -10 52 2 84 -7 76 -20
-3 -5 1 -6 9 -3 23 9 84 -15 119 -46 18 -15 49 -33 69 -39 59 -19 181 -106
208 -148 28 -42 41 -59 85 -111 17 -20 23 -32 15 -28 -9 4 -8 2 2 -7 25 -20
121 -224 114 -242 -2 -7 3 -42 13 -77 10 -35 17 -79 15 -98 -3 -28 -2 -31 5
-15 7 14 10 15 10 5 1 -8 -8 -29 -18 -46 -14 -23 -16 -35 -8 -49 7 -14 6 -21
-8 -31 -16 -12 -16 -14 -2 -28 20 -20 27 -20 27 1 0 9 2 14 5 11 4 -3 3 -18
-1 -33 -4 -16 -10 -22 -14 -16 -4 8 -12 5 -24 -8 -14 -16 -16 -23 -6 -41 9
-18 9 -24 0 -30 -7 -4 -10 -14 -8 -21 3 -8 -4 -32 -15 -54 -11 -22 -20 -42
-19 -45 0 -3 -6 -9 -15 -13 -10 -6 -13 -17 -8 -34 3 -14 2 -22 -3 -19 -6 3
-12 -4 -15 -15 -4 -14 -11 -20 -21 -16 -8 3 -17 -1 -20 -9 -3 -8 1 -17 10 -21
13 -5 13 -8 -3 -24 -32 -32 -39 -44 -35 -61 4 -20 -18 -35 -28 -18 -12 20 -22
-7 -11 -29 9 -16 4 -23 -29 -46 -36 -25 -55 -50 -52 -67 1 -5 -1 -8 -6 -8 -14
0 -28 35 -31 74 -1 21 -6 47 -11 57 -13 24 -13 27 8 32 12 4 11 5 -6 6 -12 0
-26 9 -29 19 -4 9 -13 23 -20 30 -7 8 -11 17 -8 22 3 5 1 11 -5 15 -5 3 -10
15 -10 26 0 10 -7 19 -15 19 -10 0 -15 10 -15 34 0 25 -5 35 -20 39 -17 4 -20
14 -20 54 0 39 -6 56 -31 88 -31 40 -31 40 10 -4 27 -29 40 -50 37 -65 -2 -11
-1 -15 1 -8 3 8 20 1 54 -24 27 -20 69 -40 92 -46 23 -5 51 -11 62 -14 11 -3
-9 10 -44 28 -78 40 -88 58 -34 58 53 1 170 28 126 29 -42 1 -36 15 28 64 35
27 49 43 45 54 -9 23 18 60 62 83 35 19 35 20 7 14 -16 -4 -46 -21 -66 -39
-20 -18 -45 -37 -55 -43 -13 -7 -18 -20 -16 -41 2 -33 -18 -51 -59 -51 -17 0
-19 3 -10 14 10 12 6 13 -26 5 -55 -12 -76 -11 -67 4 6 9 4 9 -7 1 -18 -14
-61 -25 -54 -14 3 4 -10 11 -29 14 -22 4 -43 18 -59 39 -22 29 -23 35 -11 52
10 14 14 15 15 4 0 -9 2 -10 5 -2 3 7 0 22 -7 35 -10 19 -10 21 2 12 31 -24
196 6 222 40 9 11 5 -11 -8 -49 -3 -11 1 -8 9 7 19 32 43 126 48 183 4 45 18
51 113 54 28 1 57 6 65 11 11 8 3 10 -30 8 -25 -1 -66 -1 -91 0 l-47 2 -11 76
c-6 42 -14 81 -17 86 -3 5 -66 9 -142 8 -186 -2 -194 -2 -187 10 4 6 -6 9 -25
8 -23 -2 -35 3 -44 17 -27 47 -25 47 -259 47 -122 1 -207 4 -189 8 44 10 191
15 464 14 125 0 225 3 222 8 -3 4 0 8 5 8 6 0 11 -5 11 -10 0 -7 6 -7 20 0 13
7 20 7 20 1 0 -7 9 -7 26 -1 16 7 23 7 19 0 -3 -6 -1 -10 4 -10 6 0 11 6 11
13 0 22 -83 140 -131 188 -39 38 -56 47 -105 56 -33 6 -63 8 -67 3 -11 -10
-197 -1 -217 10 -16 10 24 12 189 10 82 -1 93 1 82 13 -16 21 -154 75 -220 87
-117 22 -220 10 -351 -41 -58 -22 -78 -34 -69 -40 10 -6 7 -9 -11 -10 -47 -4
115 -17 218 -18 84 -1 102 -4 102 -16 0 -21 -30 -31 -87 -28 -102 5 -179 2
-208 -6 -28 -9 -26 -9 20 -10 92 -2 32 -19 -83 -23 -107 -4 -114 -6 -142 -33
-33 -32 -99 -153 -126 -235 -28 -83 -26 -271 4 -365 20 -66 52 -132 37 -78
l-6 22 51 -22 c42 -17 54 -19 70 -9 11 7 25 12 30 12 6 0 30 9 52 20 45 22 88
26 88 9 0 -5 5 -7 10 -4 6 3 10 2 10 -2 0 -5 -10 -13 -22 -18 -13 -6 -23 -19
-24 -30 -2 -40 -4 -44 -34 -61 -16 -10 -32 -25 -36 -33 -15 -39 -31 -123 -26
-146 3 -18 0 -25 -9 -23 -12 3 -14 -8 -10 -58 1 -8 6 -12 12 -8 7 4 10 3 7 -2
-2 -5 -10 -24 -17 -41 -7 -18 -17 -30 -22 -27 -5 3 -2 16 7 30 16 23 10 31
-12 16 -18 -11 -55 -82 -43 -82 6 0 3 -7 -5 -16 -22 -21 -20 -40 2 -23 15 12
14 11 -1 -8 -11 -12 -16 -27 -12 -32 7 -12 -8 -15 -19 -4 -18 19 -32 8 -34
-26 -2 -20 -7 -38 -12 -39 -6 -2 -7 -9 -4 -15 3 -7 -9 4 -26 23 -103 113 -145
166 -147 185 -1 12 -15 45 -32 74 -42 70 -55 104 -80 201 -37 139 -30 220 35
420 8 25 14 54 14 65 0 37 48 128 146 281 31 48 90 110 176 184 50 42 221 107
328 123 58 9 251 6 277 -4z m14 -659 c55 -28 102 -62 152 -111 40 -39 60 -62
45 -52 -15 10 -28 21 -28 26 0 4 -5 7 -12 7 -6 0 -22 10 -34 21 -28 26 -79 35
-70 13 3 -9 2 -12 -5 -9 -6 4 -8 13 -5 20 4 13 -13 33 -43 50 -11 6 -13 3 -8
-15 4 -17 3 -20 -6 -11 -17 17 -33 13 -33 -8 0 -11 6 -18 16 -16 18 3 70 -26
70 -39 0 -6 -5 -5 -11 1 -6 6 -17 9 -24 7 -6 -3 -17 2 -24 10 -7 8 -19 12 -27
9 -9 -3 -14 2 -14 17 0 11 -4 19 -9 16 -5 -4 -12 0 -14 6 -4 8 -6 7 -6 -4 -1
-11 -9 -16 -22 -15 -15 1 -19 6 -15 20 4 18 3 17 -16 -2 -22 -24 -39 -21 -19
3 11 13 8 14 -15 10 -15 -3 -34 -9 -43 -13 -9 -5 -20 -10 -26 -10 -35 -5 -66
-16 -105 -38 l-45 -25 35 30 c65 56 225 141 268 142 7 0 49 -18 93 -40z"/>
<path d="M2820 1981 c0 -6 7 -7 17 -4 10 4 14 2 10 -4 -4 -6 5 -9 24 -7 23 3
32 -1 38 -19 5 -14 4 -25 -3 -29 -6 -4 -7 -8 -2 -8 4 0 -2 -8 -14 -18 -20 -16
-20 -19 -6 -19 10 0 23 10 28 23 7 14 16 20 27 17 11 -4 10 -1 -4 10 -16 12
-18 20 -9 33 6 10 16 20 24 22 7 3 10 0 7 -5 -4 -6 5 -9 24 -7 23 3 32 -1 38
-19 5 -14 4 -25 -3 -29 -6 -4 -7 -8 -2 -8 4 0 -2 -8 -14 -18 -20 -16 -20 -19
-6 -19 10 0 23 10 28 23 7 14 16 20 27 17 11 -4 10 -1 -4 10 -16 12 -18 20 -9
33 6 10 16 20 24 22 7 3 10 0 7 -5 -4 -6 5 -9 24 -7 23 3 32 -1 38 -19 5 -14
4 -25 -3 -29 -6 -4 -7 -8 -2 -8 4 0 -2 -8 -14 -18 -20 -16 -20 -19 -6 -19 10
0 23 10 28 23 7 14 16 20 27 17 11 -4 10 -1 -4 10 -16 12 -18 20 -9 33 6 10
16 20 24 22 7 3 10 0 7 -5 -4 -6 5 -9 24 -7 23 3 32 -1 38 -19 5 -14 4 -25 -3
-29 -6 -4 -7 -8 -2 -8 4 0 -2 -8 -14 -18 -20 -16 -20 -19 -6 -19 10 0 23 10
28 23 7 14 16 20 27 17 11 -4 10 -1 -4 10 -16 12 -18 20 -9 33 6 10 16 20 24
22 7 3 10 0 7 -5 -4 -6 5 -9 24 -7 23 3 32 -1 38 -19 5 -14 4 -25 -3 -29 -6
-4 -7 -8 -2 -8 4 0 -2 -8 -14 -18 -20 -16 -20 -19 -6 -19 10 0 23 10 28 23 7
14 16 20 27 17 11 -4 10 -1 -4 10 -16 12 -18 20 -9 33 6 10 16 20 24 22 7 3
10 0 7 -5 -4 -6 5 -9 24 -7 23 3 32 -1 38 -19 5 -14 4 -25 -3 -29 -6 -4 -7 -8
-2 -8 4 0 -2 -8 -14 -18 -20 -16 -20 -19 -6 -19 10 0 23 10 28 23 7 14 16 20
27 17 11 -4 10 -1 -4 10 -16 12 -18 20 -9 33 6 10 16 20 24 22 7 3 10 0 7 -5
-4 -6 5 -9 24 -7 23 3 32 -1 38 -19 5 -14 4 -25 -3 -29 -6 -4 -7 -8 -2 -8 4 0
-2 -8 -14 -18 -20 -16 -20 -19 -6 -19 10 0 23 10 28 23 7 14 16 20 27 17 11
-4 10 -1 -4 10 -16 12 -18 20 -9 33 6 10 16 20 24 22 7 3 10 0 7 -5 -4 -6 5
-9 24 -7 23 3 32 -1 38 -19 5 -14 4 -25 -3 -29 -6 -4 -7 -8 -2 -8 4 0 -2 -8
-14 -18 -20 -16 -20 -19 -6 -19 10 0 23 10 28 23 7 14 16 20 27 17 11 -4 10
-1 -4 10 -16 12 -18 20 -9 33 6 10 16 20 24 22 7 3 10 0 7 -5 -4 -6 5 -9 24
-7 23 3 32 -1 38 -19 5 -14 4 -25 -3 -29 -6 -4 -7 -8 -2 -8 4 0 -2 -8 -14 -18
-20 -16 -20 -19 -6 -19 10 0 23 10 28 23 7 14 16 20 27 17 11 -4 10 -1 -4 10
-16 12 -18 20 -9 33 6 10 16 20 24 22 8 3 10 0 5 -8 -5 -9 -4 -11 3 -6 22 13
12 26 -20 26 -26 0 -30 -3 -18 -11 12 -8 9 -9 -10 -4 -14 4 -45 9 -70 11 -35
4 -42 3 -30 -6 12 -9 10 -10 -10 -5 -14 4 -45 9 -70 11 -35 4 -42 3 -30 -6 12
-9 10 -10 -10 -5 -14 4 -45 9 -70 11 -35 4 -42 3 -30 -6 12 -9 10 -10 -10 -5
-14 4 -45 9 -70 11 -35 4 -42 3 -30 -6 12 -9 10 -10 -10 -5 -14 4 -45 9 -70
11 -35 4 -42 3 -30 -6 12 -9 10 -10 -10 -5 -14 4 -45 9 -70 11 -35 4 -42 3
-30 -6 12 -9 10 -10 -10 -5 -14 4 -45 9 -70 11 -35 4 -42 3 -30 -6 12 -9 10
-10 -10 -5 -14 4 -45 9 -70 11 -35 4 -42 3 -30 -6 12 -10 10 -10 -10 -5 -54
14 -90 16 -90 6z"/>
<path d="M90 1489 l-35 -6 35 -3 c26 -2 29 -4 12 -7 -14 -3 -22 -10 -19 -18 4
-9 -1 -11 -16 -8 -18 4 -19 3 -7 -6 13 -9 12 -11 -5 -12 -11 -1 -24 -1 -29 0
-5 1 -6 -8 -3 -21 6 -21 5 -22 -7 -5 -13 17 -14 16 -12 -7 0 -13 5 -22 9 -19
4 2 30 7 57 10 35 4 50 2 50 -6 0 -7 4 -10 9 -6 5 3 12 1 15 -4 8 -12 -37 -8
-46 4 -4 6 -8 2 -8 -7 0 -10 -7 -18 -15 -18 -9 0 -12 -6 -9 -15 4 -8 11 -12
18 -8 6 4 5 0 -2 -9 -8 -9 -20 -14 -28 -11 -8 3 -14 1 -14 -4 0 -19 14 -23 31
-7 9 8 20 11 23 6 3 -5 -6 -15 -20 -22 -14 -8 -22 -20 -19 -27 2 -8 1 -12 -3
-10 -10 7 -32 -19 -24 -29 4 -5 -1 -3 -10 4 -15 12 -16 9 -14 -22 1 -19 5 -38
10 -43 5 -4 6 -3 3 3 -4 6 2 19 12 28 15 14 21 15 27 4 4 -7 4 -10 -1 -6 -12
11 -35 -11 -28 -28 3 -9 -1 -14 -12 -14 -17 0 -17 -1 -2 -18 18 -20 23 -37 8
-28 -5 3 -12 -1 -15 -10 -8 -21 -1 -28 16 -18 18 12 68 12 75 1 4 -6 -2 -8
-15 -5 -16 4 -20 1 -19 -13 1 -11 5 -19 10 -19 5 0 16 -8 25 -17 16 -15 16
-16 0 -11 -9 4 -24 0 -35 -8 -10 -9 -12 -13 -5 -9 9 4 11 -3 10 -29 -2 -19 -7
-34 -13 -33 -5 1 -9 -5 -10 -13 0 -9 -9 -15 -23 -14 -22 1 -22 1 -5 -18 16
-18 16 -19 -3 -12 -15 5 -16 4 -4 -5 10 -7 11 -11 3 -11 -23 0 -15 -47 9 -53
20 -6 20 -7 4 -32 -9 -14 -12 -24 -5 -23 6 2 13 -7 15 -20 3 -16 0 -21 -8 -16
-7 4 -8 3 -4 -4 10 -17 26 -15 26 4 0 8 5 12 11 8 8 -4 9 1 4 16 -5 15 -4 20
4 16 6 -4 11 -14 11 -22 0 -9 5 -12 12 -8 7 5 9 2 5 -8 -6 -18 10 -38 27 -32
6 2 17 -9 24 -26 15 -34 24 -37 46 -15 8 8 19 15 25 15 6 0 11 5 11 11 0 6 -7
9 -15 5 -8 -3 -14 -2 -14 2 4 22 -3 32 -21 32 -11 0 -20 6 -21 13 0 6 -2 22
-3 34 -3 29 2 29 27 1 19 -23 19 -23 13 -1 -6 18 -3 21 19 19 14 -2 28 0 30 4
9 15 37 3 52 -21 12 -21 13 -22 8 -2 -5 18 -2 21 20 19 13 -2 30 3 36 10 16
20 1 54 -24 54 -18 0 -19 -2 -7 -10 8 -5 11 -10 6 -10 -6 0 -1 -6 9 -14 16
-12 13 -13 -33 -13 -44 1 -52 4 -57 24 -3 15 -13 23 -28 23 -18 0 -19 -2 -7
-10 8 -5 11 -10 6 -10 -6 0 -1 -6 9 -14 16 -11 12 -13 -38 -12 -30 0 -54 3
-51 5 11 11 -22 31 -53 31 -30 0 -34 -2 -23 -14 9 -12 8 -15 -9 -13 -12 1 -21
7 -21 14 0 8 -7 10 -18 6 -14 -6 -15 -4 -5 9 7 8 11 17 8 20 -2 2 9 20 26 39
17 19 28 29 25 23 -3 -7 1 -17 10 -24 8 -7 13 -19 10 -27 -7 -16 25 -18 42 -1
9 9 12 6 12 -15 0 -15 3 -26 8 -26 4 1 9 0 12 -1 22 -8 38 -6 34 5 -3 7 -13
12 -22 11 -10 -1 -18 8 -20 21 -2 16 -13 26 -35 32 -18 5 -25 10 -16 10 9 1
20 8 23 17 4 9 9 14 13 11 3 -4 12 -2 20 5 11 8 12 7 7 -6 -5 -12 -2 -15 10
-10 9 3 16 10 16 15 0 4 6 6 14 3 8 -3 17 -1 21 5 3 7 0 8 -9 5 -10 -4 -16 -1
-16 9 0 10 8 13 25 9 34 -6 32 4 -5 23 -30 16 -43 39 -15 29 10 -4 18 3 25 21
13 33 19 30 22 -12 1 -18 5 -30 9 -27 4 2 3 20 -1 39 -7 33 -5 39 13 36 4 0 7
3 7 9 0 5 4 10 10 10 6 0 6 -9 -1 -26 -8 -22 -7 -25 4 -16 8 7 18 7 27 2 17
-11 10 -21 -16 -22 -13 -1 -19 -10 -19 -24 0 -12 2 -22 5 -21 6 2 10 -8 10
-23 0 -5 -5 -10 -11 -10 -5 0 -8 4 -5 9 4 5 -5 4 -18 -2 -15 -7 -23 -18 -21
-29 2 -11 -2 -18 -11 -18 -8 0 -13 -4 -10 -8 2 -4 -4 -8 -14 -8 -10 0 -16 4
-14 8 8 13 -7 9 -22 -6 -8 -8 -14 -25 -14 -38 0 -18 2 -20 9 -8 6 8 8 17 5 21
-2 4 17 6 43 5 27 -2 42 -1 36 1 -21 7 -15 23 10 23 20 1 20 2 4 11 -9 6 -15
15 -11 20 3 6 12 5 22 -3 11 -10 16 -10 19 -1 2 7 10 10 18 7 7 -3 16 -1 20 5
3 7 0 8 -9 5 -10 -4 -16 -1 -16 9 0 10 8 13 25 9 34 -6 32 4 -5 23 -30 15 -43
39 -16 29 9 -3 20 6 29 26 9 16 12 28 7 25 -13 -8 -19 22 -7 36 10 11 9 11 -5
0 -9 -7 -14 -19 -11 -27 3 -8 1 -14 -4 -14 -17 0 -23 12 -14 29 7 13 4 16 -15
16 -13 0 -24 -4 -24 -8 0 -5 -5 -5 -12 -1 -6 4 -8 3 -5 -3 4 -6 1 -16 -7 -22
-18 -15 -29 11 -13 30 10 11 9 11 -5 0 -9 -7 -14 -19 -11 -27 3 -8 1 -14 -4
-14 -17 0 -22 12 -13 30 8 14 5 16 -15 12 -23 -4 -30 -13 -26 -34 0 -5 -3 -8
-9 -8 -13 0 -13 27 0 35 8 5 7 11 0 20 -13 16 -4 75 14 88 7 6 4 7 -7 3 -14
-4 -16 -1 -13 20 3 16 0 27 -10 31 -7 3 -12 8 -10 12 3 4 -4 7 -14 8 -27 2
-32 -10 -15 -33 10 -13 14 -15 15 -5 0 11 3 11 15 1 15 -13 11 -35 -6 -25 -5
4 -19 8 -30 10 -30 6 -31 9 -18 39 7 14 20 26 31 26 10 0 17 3 17 8 -3 19 2
33 10 28 11 -7 20 36 17 84 -1 19 3 38 8 42 8 5 7 8 -1 8 -6 0 -15 -5 -18 -10
-4 -6 -10 -8 -14 -6 -4 3 -8 -1 -8 -9 0 -8 4 -12 9 -9 4 3 8 1 8 -5 0 -18 -20
-23 -26 -6 -4 9 -13 14 -20 11 -8 -3 -14 -1 -14 3 0 5 7 12 16 15 8 3 12 11 8
18 -5 8 0 9 14 6 12 -4 25 -1 29 4 3 6 1 8 -5 4 -6 -3 -12 2 -14 11 -2 15 -10
17 -38 12z"/>
<path d="M2806 1471 c-9 -13 24 -36 53 -37 14 0 25 -6 24 -12 -2 -7 2 -12 8
-12 6 0 9 7 6 15 -7 16 12 32 22 18 3 -5 22 -9 41 -9 21 0 34 -5 33 -12 -2 -7
2 -12 8 -12 6 0 9 7 6 15 -7 16 12 32 22 18 3 -5 22 -9 41 -9 21 0 34 -5 33
-12 -2 -7 2 -12 8 -12 6 0 9 7 6 15 -7 16 12 32 22 18 3 -5 22 -9 41 -9 21 0
34 -5 33 -12 -2 -7 2 -12 8 -12 6 0 9 7 6 15 -7 16 12 32 22 18 3 -5 22 -9 41
-9 21 0 34 -5 32 -12 -1 -7 3 -12 9 -12 6 0 9 7 6 15 -7 16 12 32 22 18 3 -5
22 -9 41 -9 21 0 34 -5 32 -12 -1 -7 3 -12 9 -12 6 0 9 7 6 15 -7 16 12 32 22
18 3 -5 22 -9 41 -9 21 0 34 -5 33 -12 -2 -7 2 -12 8 -12 6 0 9 7 6 15 -7 16
12 32 22 18 3 -5 22 -9 41 -9 21 0 34 -5 33 -12 -2 -7 2 -12 8 -12 6 0 9 7 6
15 -7 16 12 32 22 18 3 -5 22 -9 41 -9 21 0 34 -5 33 -12 -2 -7 2 -12 8 -12 6
0 9 7 6 15 -7 16 12 32 22 19 9 -13 51 -13 51 0 0 8 -139 11 -507 10 -280 0
-514 1 -521 4 -11 4 -11 6 0 13 9 6 9 9 1 9 -6 0 -14 -4 -17 -9z"/>
<path d="M78 540 c-7 -11 -16 -20 -21 -20 -4 0 -5 4 -2 10 3 6 -1 7 -9 4 -31
-12 -9 -57 23 -47 14 4 14 3 1 -6 -8 -6 -10 -11 -5 -11 6 0 11 -20 12 -45 1
-36 -1 -42 -12 -32 -7 7 -11 15 -8 20 2 4 0 7 -6 7 -5 0 -7 13 -5 29 3 16 0
32 -5 36 -6 3 -8 0 -5 -9 3 -9 -2 -17 -15 -21 -12 -3 -18 -11 -15 -17 4 -6 10
-5 15 3 7 11 9 11 9 1 0 -7 -6 -15 -13 -18 -16 -6 -22 -74 -7 -74 6 0 8 -5 4
-12 -15 -25 -11 -45 8 -40 11 2 18 -1 18 -9 0 -10 3 -10 11 -2 15 15 3 34 -16
26 -9 -3 -15 1 -15 9 0 8 10 14 25 14 14 0 25 -6 25 -13 0 -16 26 -17 35 -2 4
6 13 8 21 5 14 -5 27 9 30 32 5 27 14 25 15 -4 1 -17 3 -22 6 -11 2 9 9 17 13
17 6 0 6 -11 0 -25 -6 -16 -6 -25 0 -25 6 0 10 3 11 8 0 4 2 17 5 30 3 15 -1
22 -11 22 -8 0 -15 8 -15 18 0 14 2 15 10 2 6 -10 10 -11 10 -2 0 6 8 12 18
13 13 0 14 2 2 6 -8 3 -18 11 -22 17 -5 7 -8 7 -8 -3 0 -7 -6 -11 -14 -8 -11
4 -13 1 -9 -11 6 -15 5 -15 -10 -3 -15 12 -17 12 -11 -4 6 -15 4 -16 -16 -5
-18 10 -24 9 -32 -1 -7 -10 -8 -9 -4 5 4 10 2 24 -4 31 -8 9 -8 15 0 20 6 3 7
11 4 17 -4 7 -2 8 5 4 9 -6 9 -12 -1 -24 -12 -15 -11 -16 5 -3 9 7 17 22 17
31 0 10 6 21 13 24 9 5 9 7 0 12 -7 3 -9 13 -6 22 4 15 3 15 -6 2 -10 -13 -12
-13 -20 0 -5 8 -7 18 -5 22 3 4 3 8 0 8 -3 0 -11 -9 -18 -20z"/>
<path d="M58 223 c13 -5 17 -33 4 -33 -12 0 -33 -50 -27 -61 4 -5 -1 -9 -10
-9 -11 0 -15 5 -11 15 3 8 1 15 -4 15 -6 0 -10 -9 -10 -20 0 -11 4 -20 9 -20
5 0 11 -10 14 -22 6 -23 6 -23 -9 -3 -15 19 -15 18 -8 -10 4 -16 15 -41 26
-54 16 -21 18 -22 18 -5 1 18 1 18 14 2 15 -21 32 -23 39 -5 4 9 8 9 15 -2 7
-9 12 -10 16 -2 4 6 3 11 -1 11 -5 0 -9 8 -10 18 -1 10 4 19 12 19 7 0 11 -5
9 -11 -6 -17 12 -40 25 -32 17 11 13 29 -5 22 -10 -4 -14 -2 -11 6 2 7 9 12
15 11 6 -2 10 15 8 42 -2 35 0 42 10 34 9 -7 15 -5 23 8 8 14 12 15 19 5 13
-20 22 7 11 33 -6 17 -8 17 -8 3 -1 -16 -12 -22 -33 -19 -4 0 -5 -7 -2 -17 5
-16 5 -16 -8 0 -13 15 -15 15 -26 -2 -7 -12 -8 -21 -2 -25 12 -7 13 -42 2 -49
-4 -2 -14 -1 -22 4 -13 8 -13 11 -1 22 9 8 11 9 7 1 -3 -6 -2 -14 4 -18 5 -3
10 3 10 14 0 11 -5 23 -10 26 -6 4 -7 12 -3 18 5 7 8 21 8 32 0 11 5 19 12 18
7 -2 10 4 6 13 -5 13 -8 14 -20 1 -8 -7 -15 -23 -16 -35 -1 -12 -5 -22 -10
-22 -5 0 -7 7 -3 15 3 8 1 15 -5 15 -6 0 -8 4 -5 9 3 5 -3 11 -14 14 -11 3
-20 12 -20 21 0 9 -8 16 -17 15 -11 0 -13 -3 -5 -6z"/>
</g>
</svg>
