<?xml version="1.0" standalone="no"?>
<!DOCTYPE svg PUBLIC "-//W3C//DTD SVG 20010904//EN"
 "http://www.w3.org/TR/2001/REC-SVG-20010904/DTD/svg10.dtd">
<svg version="1.0" xmlns="http://www.w3.org/2000/svg"
 width="385.000000pt" height="216.000000pt" viewBox="0 0 385.000000 216.000000"
 preserveAspectRatio="xMidYMid meet">

<g transform="translate(0.000000,216.000000) scale(0.100000,-0.100000)"
fill="#000000" stroke="none">
<path d="M1785 2023 c-162 -21 -330 -82 -395 -142 -19 -18 -55 -49 -79 -69
-24 -20 -53 -51 -65 -68 -21 -31 -129 -178 -164 -224 -10 -14 -22 -38 -26 -55
-4 -16 -21 -57 -37 -90 -31 -64 -36 -91 -18 -97 8 -3 6 -9 -4 -20 -12 -12 -18
-45 -23 -125 -10 -164 30 -339 103 -455 12 -21 23 -44 23 -52 0 -45 199 -277
300 -350 74 -54 227 -118 264 -111 20 4 26 3 18 -3 -10 -7 -6 -9 15 -9 15 1
63 -5 106 -11 106 -16 255 -15 352 3 103 18 133 28 192 59 26 14 83 41 126 61
67 31 86 46 146 117 77 91 156 232 196 353 15 44 31 85 36 91 24 29 38 308 18
346 -8 15 -8 19 0 14 6 -4 11 -2 11 3 0 6 -4 11 -9 11 -5 0 -9 20 -9 45 -2 65
-38 144 -152 330 -79 128 -223 266 -340 325 -180 91 -430 143 -585 123z m222
-64 c15 -6 48 -11 72 -10 52 2 84 -7 76 -20 -3 -5 1 -6 9 -3 23 9 84 -15 119
-46 18 -15 49 -33 69 -39 59 -19 181 -106 208 -148 28 -42 41 -59 85 -111 17
-20 23 -32 15 -28 -9 4 -8 2 2 -7 25 -20 121 -224 114 -242 -2 -7 3 -42 13
-77 10 -35 17 -79 15 -98 -3 -28 -2 -31 5 -15 7 14 10 15 10 5 1 -8 -8 -29
-18 -46 -14 -23 -16 -35 -8 -49 7 -14 6 -21 -8 -31 -16 -12 -16 -14 -2 -28 20
-20 27 -20 27 1 0 9 2 14 5 11 4 -3 3 -18 -1 -33 -4 -16 -10 -22 -14 -16 -4 8
-12 5 -24 -8 -14 -16 -16 -23 -6 -41 9 -18 9 -24 0 -30 -7 -4 -10 -14 -8 -21
3 -8 -4 -32 -15 -54 -11 -22 -20 -42 -19 -45 0 -3 -6 -9 -15 -13 -10 -6 -13
-17 -8 -34 3 -14 2 -22 -3 -19 -6 3 -12 -4 -15 -15 -4 -14 -11 -20 -21 -16 -8
3 -17 -1 -20 -9 -3 -8 1 -17 10 -21 13 -5 13 -8 -3 -24 -32 -32 -39 -44 -35
-61 4 -20 -18 -35 -28 -18 -12 20 -22 -7 -11 -29 9 -16 4 -23 -29 -46 -36 -25
-55 -50 -52 -67 1 -5 -1 -8 -6 -8 -14 0 -28 35 -31 74 -1 21 -6 47 -11 57 -13
24 -13 27 8 32 12 4 11 5 -6 6 -12 0 -26 9 -29 19 -4 9 -13 23 -20 30 -7 8
-11 17 -8 22 3 5 1 11 -5 15 -5 3 -10 15 -10 26 0 10 -7 19 -15 19 -10 0 -15
10 -15 34 0 25 -5 35 -20 39 -17 4 -20 14 -20 54 0 39 -6 56 -31 88 -31 40
-31 40 10 -4 27 -29 40 -50 37 -65 -2 -11 -1 -15 1 -8 3 8 20 1 54 -24 27 -20
69 -40 92 -46 23 -5 51 -11 62 -14 11 -3 -9 10 -44 28 -78 40 -88 58 -34 58
53 1 170 28 126 29 -42 1 -36 15 28 64 35 27 49 43 45 54 -9 23 18 60 62 83
35 19 35 20 7 14 -16 -4 -46 -21 -66 -39 -20 -18 -45 -37 -55 -43 -13 -7 -18
-20 -16 -41 2 -33 -18 -51 -59 -51 -17 0 -19 3 -10 14 10 12 6 13 -26 5 -55
-12 -76 -11 -67 4 6 9 4 9 -7 1 -18 -14 -61 -25 -54 -14 3 4 -10 11 -29 14
-22 4 -43 18 -59 39 -22 29 -23 35 -11 52 10 14 14 15 15 4 0 -9 2 -10 5 -2 3
7 0 22 -7 35 -10 19 -10 21 2 12 31 -24 196 6 222 40 9 11 5 -11 -8 -49 -3
-11 1 -8 9 7 19 32 43 126 48 183 4 45 18 51 113 54 28 1 57 6 65 11 11 8 3
10 -30 8 -25 -1 -66 -1 -91 0 l-47 2 -11 76 c-6 42 -14 81 -17 86 -3 5 -66 9
-142 8 -186 -2 -194 -2 -187 10 4 6 -6 9 -25 8 -23 -2 -35 3 -44 17 -27 47
-25 47 -259 47 -122 1 -207 4 -189 8 44 10 191 15 464 14 125 0 225 3 222 8
-3 4 0 8 5 8 6 0 11 -5 11 -10 0 -7 6 -7 20 0 13 7 20 7 20 1 0 -7 9 -7 26 -1
16 7 23 7 19 0 -3 -6 -1 -10 4 -10 6 0 11 6 11 13 0 22 -83 140 -131 188 -39
38 -56 47 -105 56 -33 6 -63 8 -67 3 -11 -10 -197 -1 -217 10 -16 10 24 12
189 10 82 -1 93 1 82 13 -16 21 -154 75 -220 87 -117 22 -220 10 -351 -41 -58
-22 -78 -34 -69 -40 10 -6 7 -9 -11 -10 -47 -4 115 -17 218 -18 84 -1 102 -4
102 -16 0 -21 -30 -31 -87 -28 -102 5 -179 2 -208 -6 -28 -9 -26 -9 20 -10 92
-2 32 -19 -83 -23 -107 -4 -114 -6 -142 -33 -33 -32 -99 -153 -126 -235 -28
-83 -26 -271 4 -365 20 -66 52 -132 37 -78 l-6 22 51 -22 c42 -17 54 -19 70
-9 11 7 25 12 30 12 6 0 30 9 52 20 45 22 88 26 88 9 0 -5 5 -7 10 -4 6 3 10
2 10 -2 0 -5 -10 -13 -22 -18 -13 -6 -23 -19 -24 -30 -2 -40 -4 -44 -34 -61
-16 -10 -32 -25 -36 -33 -15 -39 -31 -123 -26 -146 3 -18 0 -25 -9 -23 -12 3
-14 -8 -10 -58 1 -8 6 -12 12 -8 7 4 10 3 7 -2 -2 -5 -10 -24 -17 -41 -7 -18
-17 -30 -22 -27 -5 3 -2 16 7 30 16 23 10 31 -12 16 -18 -11 -55 -82 -43 -82
6 0 3 -7 -5 -16 -22 -21 -20 -40 2 -23 15 12 14 11 -1 -8 -11 -12 -16 -27 -12
-32 7 -12 -8 -15 -19 -4 -18 19 -32 8 -34 -26 -2 -20 -7 -38 -12 -39 -6 -2 -7
-9 -4 -15 3 -7 -9 4 -26 23 -103 113 -145 166 -147 185 -1 12 -15 45 -32 74
-42 70 -55 104 -80 201 -37 139 -30 220 35 420 8 25 14 54 14 65 0 37 48 128
146 281 31 48 90 110 176 184 50 42 221 107 328 123 58 9 251 6 277 -4z m-210
-116 c-20 -2 -52 -2 -70 0 -17 2 0 4 38 4 39 0 53 -2 32 -4z m-154 -300 c-7
-2 -21 -2 -30 0 -10 3 -4 5 12 5 17 0 24 -2 18 -5z m415 -50 c-10 -2 -26 -2
-35 0 -10 3 -2 5 17 5 19 0 27 -2 18 -5z m-37 -193 c55 -28 102 -62 152 -111
40 -39 60 -62 45 -52 -15 10 -28 21 -28 26 0 4 -5 7 -12 7 -6 0 -22 10 -34 21
-28 26 -79 35 -70 13 3 -9 2 -12 -5 -9 -6 4 -8 13 -5 20 4 13 -13 33 -43 50
-11 6 -13 3 -8 -15 4 -17 3 -20 -6 -11 -17 17 -33 13 -33 -8 0 -11 6 -18 16
-16 18 3 70 -26 70 -39 0 -6 -5 -5 -11 1 -6 6 -17 9 -24 7 -6 -3 -17 2 -24 10
-7 8 -19 12 -27 9 -9 -3 -14 2 -14 17 0 11 -4 19 -9 16 -5 -4 -12 0 -14 6 -4
8 -6 7 -6 -4 -1 -11 -9 -16 -22 -15 -15 1 -19 6 -15 20 4 18 3 17 -16 -2 -22
-24 -39 -21 -19 3 11 13 8 14 -15 10 -15 -3 -34 -9 -43 -13 -9 -5 -20 -10 -26
-10 -35 -5 -66 -16 -105 -38 l-45 -25 35 30 c65 56 225 141 268 142 7 0 49
-18 93 -40z m-171 -54 c0 -2 -8 -10 -17 -17 -16 -13 -17 -12 -4 4 13 16 21 21
21 13z m360 -141 c14 -19 14 -19 -2 -6 -10 7 -18 18 -18 24 0 6 1 8 3 6 1 -2
9 -13 17 -24z m610 -88 c0 -5 -4 -5 -10 -2 -5 3 -10 14 -10 23 0 15 2 15 10 2
5 -8 10 -19 10 -23z m-580 -12 c0 -8 -4 -17 -10 -20 -5 -3 -10 -1 -10 5 0 6
-4 9 -9 5 -5 -3 -13 -1 -16 5 -4 6 -1 9 7 8 7 -2 12 2 11 9 -2 7 4 10 12 7 8
-4 15 -12 15 -19z m-590 -46 c-14 -6 -40 -24 -59 -42 l-34 -32 23 34 c20 29
21 33 6 28 -11 -4 -15 -3 -11 4 4 6 13 8 19 6 7 -3 19 -1 27 4 8 5 23 8 34 8
17 0 16 -2 -5 -10z m585 -7 c-3 -3 -11 0 -18 7 -9 10 -8 11 6 5 10 -3 15 -9
12 -12z m-704 -84 c-10 -24 -21 -50 -25 -58 -3 -8 -3 1 0 20 5 32 29 80 39 80
2 0 -4 -19 -14 -42z m-38 -153 c-3 -9 -8 -14 -10 -11 -3 3 -2 9 2 15 9 16 15
13 8 -4z m113 -191 c-3 -8 0 -14 6 -14 6 0 8 -3 5 -7 -4 -3 -2 -12 4 -20 11
-12 3 -17 -22 -15 -3 1 -6 -4 -6 -11 -4 -65 -20 -138 -37 -163 l-20 -32 -28
21 c-35 26 -35 47 -2 78 29 27 56 74 47 82 -3 3 4 21 16 40 11 19 21 42 21 51
0 10 5 14 11 11 6 -4 8 -13 5 -21z m612 -64 c-1 -21 -4 -37 -8 -35 -8 5 -10
56 -3 68 9 15 13 5 11 -33z m47 -121 c16 6 49 -69 35 -83 -30 -30 -69 44 -68
129 l0 50 12 -50 c6 -27 16 -48 21 -46z m-48 29 c-3 -8 -6 -5 -6 6 -1 11 2 17
5 13 3 -3 4 -12 1 -19z m-619 -109 c12 -19 12 -20 -10 -14 -29 9 -31 11 -23
24 9 16 19 13 33 -10z"/>
<path d="M1548 1763 c6 -2 18 -2 25 0 6 3 1 5 -13 5 -14 0 -19 -2 -12 -5z"/>
<path d="M1330 991 c0 -6 4 -13 10 -16 6 -3 7 1 4 9 -7 18 -14 21 -14 7z"/>
<path d="M2450 930 c-6 -11 -8 -20 -6 -20 3 0 10 9 16 20 6 11 8 20 6 20 -3 0
-10 -9 -16 -20z"/>
<path d="M2657 666 c-4 -10 -1 -13 8 -9 8 3 12 9 9 14 -7 12 -11 11 -17 -5z"/>
<path d="M1321 574 c0 -11 3 -14 6 -6 3 7 2 16 -1 19 -3 4 -6 -2 -5 -13z"/>
<path d="M2580 539 c0 -5 5 -7 10 -4 6 3 10 8 10 11 0 2 -4 4 -10 4 -5 0 -10
-5 -10 -11z"/>
</g>
</svg>
