<?xml version="1.0" standalone="no"?>
<!DOCTYPE svg PUBLIC "-//W3C//DTD SVG 20010904//EN"
 "http://www.w3.org/TR/2001/REC-SVG-20010904/DTD/svg10.dtd">
<svg version="1.0" xmlns="http://www.w3.org/2000/svg"
 width="489.000000pt" height="125.000000pt" viewBox="0 0 489.000000 125.000000"
 preserveAspectRatio="xMidYMid meet">

<g transform="translate(0.000000,125.000000) scale(0.100000,-0.100000)"
fill="#000000" stroke="none">
<path d="M3868 1065 c-114 -29 -184 -80 -263 -191 -56 -79 -79 -130 -94 -216
-26 -149 31 -302 158 -429 108 -108 149 -123 341 -123 l145 -1 80 38 c93 44
124 71 170 147 64 106 88 184 88 293 0 95 -1 100 -42 183 -73 147 -185 245
-329 288 -80 23 -187 28 -254 11z m194 -24 c37 -5 79 -15 95 -24 113 -59 139
-76 178 -121 83 -98 135 -245 116 -328 -6 -24 -5 -40 2 -47 8 -8 8 -11 0 -11
-6 0 -13 -16 -16 -34 -5 -34 -35 -106 -47 -116 -3 -3 -12 -20 -19 -38 -8 -17
-17 -32 -22 -32 -5 0 -9 -5 -9 -11 0 -16 -47 -69 -54 -62 -3 4 -6 16 -6 27 0
12 -18 57 -40 101 -50 100 -51 113 -3 80 21 -14 44 -25 53 -24 9 0 7 4 -7 11
-33 16 -28 28 12 28 21 0 35 5 35 12 0 7 11 21 24 33 13 11 27 31 31 45 l7 25
-26 -24 c-14 -14 -26 -30 -26 -37 0 -6 -7 -14 -15 -18 -8 -3 -15 -2 -15 2 0 4
-25 7 -56 7 -43 0 -59 4 -70 19 -9 13 -10 23 -4 31 5 7 6 16 2 20 -4 5 1 5 11
2 9 -4 39 -1 66 5 48 11 49 12 62 62 13 49 16 51 54 57 l40 6 -41 2 c-39 1
-40 2 -50 44 l-9 42 -96 5 c-73 4 -100 9 -113 23 -14 14 -37 17 -119 19 -62 1
-25 4 95 7 108 4 200 9 203 13 10 10 -52 93 -78 106 -12 6 -33 14 -46 17 -15
5 -19 10 -12 14 7 5 -5 15 -31 27 -57 25 -196 26 -253 1 -53 -24 -33 -37 58
-37 38 0 67 -4 67 -10 0 -6 -33 -10 -77 -11 -53 0 -72 -3 -58 -9 15 -6 5 -9
-35 -9 -71 -1 -95 -18 -131 -95 -23 -49 -29 -74 -29 -131 0 -87 14 -140 37
-143 10 -1 25 -3 33 -4 8 -1 34 4 58 11 23 8 45 11 50 6 4 -4 1 -10 -5 -12 -7
-3 -13 -12 -13 -21 0 -10 -9 -23 -21 -30 -13 -9 -19 -20 -16 -32 3 -11 1 -20
-5 -22 -5 -2 -10 -24 -11 -50 -1 -25 -6 -46 -11 -45 -12 2 -36 -42 -36 -65 0
-10 -7 -18 -15 -18 -8 0 -15 -7 -15 -15 0 -25 -17 -17 -57 29 -124 143 -133
362 -24 545 102 171 235 230 453 202z m63 -71 c8 -13 -55 -13 -75 0 -11 7 -4
10 27 10 23 0 45 -4 48 -10z m-58 -280 c51 -29 74 -50 54 -50 -5 0 -13 5 -16
11 -4 6 -13 8 -20 5 -7 -2 -16 2 -19 9 -3 9 -12 12 -21 9 -14 -6 -13 -8 2 -20
10 -7 13 -14 6 -14 -6 0 -19 7 -27 16 -9 8 -21 12 -26 9 -6 -4 -17 -2 -24 4
-10 8 -25 7 -56 -4 -57 -20 -61 -13 -8 17 79 46 88 47 155 8z m93 -140 c0 -5
-5 -10 -11 -10 -5 0 -7 5 -4 10 3 6 8 10 11 10 2 0 4 -4 4 -10z m-301 -23 c-2
-1 -13 -9 -24 -17 -19 -14 -19 -14 -6 3 7 9 18 17 24 17 6 0 8 -1 6 -3z m-24
-249 c-3 -13 -10 -38 -15 -57 -11 -44 -26 -59 -42 -43 -10 10 -10 16 0 30 7 9
20 34 29 55 17 40 40 52 28 15z m358 -100 c4 -10 2 -18 -3 -18 -12 0 -30 34
-30 57 0 16 1 16 13 -2 8 -11 17 -28 20 -37z"/>
<path d="M1483 823 c-28 -5 -29 -27 -3 -53 18 -18 20 -33 20 -129 0 -88 -3
-110 -15 -115 -9 -3 -15 -18 -15 -36 l0 -30 80 0 c71 0 80 2 80 18 0 10 -7 27
-15 38 -8 10 -15 36 -15 57 0 30 3 37 20 37 18 0 20 -7 20 -75 l0 -75 65 0 65
0 0 30 c0 18 -6 33 -15 36 -10 4 -15 21 -15 53 0 85 -46 128 -110 104 l-30
-11 0 79 0 79 -47 -1 c-27 -1 -58 -4 -70 -6z"/>
<path d="M2793 820 c-16 -6 -20 -14 -16 -30 3 -12 12 -24 19 -27 21 -8 20
-231 -1 -239 -9 -4 -15 -19 -15 -35 l0 -29 75 0 75 0 -6 28 c-3 15 -8 36 -11
47 -4 15 1 13 21 -10 14 -16 25 -34 26 -38 0 -15 70 -37 95 -31 34 8 36 59 3
69 -25 8 -68 44 -68 56 0 4 14 16 30 26 22 13 30 25 30 45 0 28 -1 28 -61 28
l-61 0 4 -37 c2 -22 -2 -38 -10 -41 -9 -3 -12 24 -12 112 l0 116 -47 -1 c-27
0 -58 -4 -70 -9z"/>
<path d="M240 771 c0 -21 6 -32 20 -36 18 -6 20 -15 20 -105 0 -90 -2 -99 -20
-105 -14 -4 -20 -15 -20 -36 l0 -29 95 0 95 0 0 29 c0 21 -6 32 -21 36 -13 5
-19 14 -17 28 5 36 24 29 61 -22 40 -55 74 -77 127 -83 32 -3 35 -1 38 27 2
23 -2 32 -20 40 -12 6 -42 38 -67 73 l-44 63 34 36 c19 19 44 39 57 44 16 6
22 17 22 39 l0 30 -80 0 -80 0 0 -28 c0 -15 5 -33 10 -38 7 -7 -2 -21 -25 -44
l-35 -34 0 36 c0 23 6 38 15 42 9 3 15 18 15 36 l0 30 -90 0 -90 0 0 -29z"/>
<path d="M1842 788 c-29 -29 -3 -78 42 -78 26 0 49 45 36 69 -12 24 -58 29
-78 9z"/>
<path d="M2628 775 c-10 -22 -9 -29 10 -47 18 -18 26 -20 49 -12 53 18 38 84
-18 84 -22 0 -32 -7 -41 -25z"/>
<path d="M3142 788 c-29 -29 -3 -78 42 -78 26 0 49 45 36 69 -12 24 -58 29
-78 9z"/>
<path d="M704 676 c-44 -20 -64 -53 -64 -106 1 -73 43 -110 125 -110 59 0 85
14 85 45 0 23 -2 24 -43 19 -32 -5 -46 -2 -56 10 -12 14 -7 16 53 16 l66 0 0
43 c0 33 -6 49 -24 66 -31 29 -99 37 -142 17z m84 -69 c3 -12 -3 -17 -22 -17
-25 0 -35 18 -19 34 12 12 38 2 41 -17z"/>
<path d="M1057 684 c-4 -4 -40 -6 -82 -5 l-75 2 0 -29 c0 -17 6 -32 15 -36 10
-3 15 -19 15 -46 0 -27 -5 -43 -15 -46 -9 -4 -15 -19 -15 -35 l0 -29 80 0 80
0 0 29 c0 16 -6 31 -15 35 -10 3 -15 19 -15 46 0 37 2 41 23 38 20 -3 22 -9
25 -75 l3 -73 64 0 65 0 0 29 c0 21 -6 32 -20 36 -17 5 -20 15 -20 61 0 45 -4
59 -25 79 -23 24 -73 34 -88 19z"/>
<path d="M1263 670 c-56 -33 -43 -79 31 -117 36 -19 46 -28 33 -31 -10 -2 -26
3 -36 12 -10 9 -27 16 -39 16 -18 0 -22 -6 -22 -34 0 -35 4 -39 65 -57 69 -21
139 18 133 74 -3 27 -11 36 -58 61 -30 16 -49 31 -43 33 7 3 21 0 32 -6 11 -6
29 -11 40 -11 16 0 21 6 21 29 0 24 -6 31 -31 40 -47 16 -90 13 -126 -9z"/>
<path d="M1794 666 c-6 -17 12 -56 26 -56 17 0 12 -77 -5 -84 -9 -3 -15 -18
-15 -36 l0 -30 80 0 80 0 0 29 c0 16 -6 31 -15 35 -11 4 -15 23 -15 81 l0 75
-65 0 c-48 0 -67 -4 -71 -14z"/>
<path d="M2150 650 c0 -20 5 -30 15 -30 8 0 32 -34 55 -80 40 -79 40 -80 79
-80 37 0 40 2 54 43 l15 42 20 -46 c20 -45 21 -46 58 -40 36 6 40 10 70 81 18
41 37 76 43 78 6 2 11 17 11 33 0 29 -1 29 -56 29 l-57 0 6 -43 c7 -49 -6 -82
-22 -57 -6 8 -7 34 -4 57 l6 43 -63 0 -63 0 5 -38 c3 -22 0 -49 -7 -61 -12
-23 -12 -23 -18 -2 -3 11 -3 39 0 61 l6 40 -77 0 -76 0 0 -30z"/>
<path d="M2590 655 c0 -14 9 -30 20 -37 14 -9 20 -24 20 -50 0 -28 -5 -38 -20
-43 -14 -4 -20 -15 -20 -36 l0 -29 85 0 c84 0 85 0 85 25 0 14 -9 30 -20 37
-17 11 -20 24 -20 85 l0 73 -65 0 c-63 0 -65 -1 -65 -25z"/>
<path d="M3094 666 c-6 -17 12 -56 26 -56 17 0 12 -77 -5 -84 -9 -3 -15 -18
-15 -36 l0 -30 80 0 80 0 0 29 c0 16 -6 31 -15 35 -11 4 -15 23 -15 81 l0 75
-65 0 c-48 0 -67 -4 -71 -14z"/>
<path d="M2027 542 c-34 -37 -15 -82 33 -82 49 0 68 51 32 83 -24 22 -45 21
-65 -1z"/>
</g>
</svg>
